<?xml version="1.0" standalone="no"?>
<!DOCTYPE svg PUBLIC "-//W3C//DTD SVG 20010904//EN"
 "http://www.w3.org/TR/2001/REC-SVG-20010904/DTD/svg10.dtd">
<svg version="1.0" xmlns="http://www.w3.org/2000/svg"
 width="1024.000000pt" height="1024.000000pt" viewBox="0 0 1024.000000 1024.000000"
 preserveAspectRatio="xMidYMid meet">
<metadata>
Created by potrace 1.11, written by Peter Selinger 2001-2013
</metadata>
<g transform="translate(0.000000,1024.000000) scale(0.100000,-0.100000)"
fill="#000000" stroke="none">
<path d="M0 5120 l0 -5120 5120 0 5120 0 0 5120 0 5120 -5120 0 -5120 0 0
-5120z m5615 4136 c563 -72 1132 -259 1566 -515 46 -27 91 -51 98 -53 8 -2 24
-12 36 -23 13 -11 49 -36 81 -55 62 -37 130 -85 278 -198 431 -327 813 -770
1089 -1262 266 -475 436 -1000 504 -1555 25 -209 25 -758 0 -957 -85 -678
-305 -1278 -668 -1825 -37 -56 -65 -104 -62 -107 4 -3 1 -6 -5 -6 -6 0 -33
-30 -60 -67 -138 -187 -204 -264 -387 -451 -165 -169 -268 -258 -462 -403 -46
-34 -83 -66 -83 -72 0 -6 -3 -8 -6 -4 -3 3 -53 -26 -111 -65 -300 -199 -668
-378 -1008 -488 -145 -46 -365 -105 -437 -115 -27 -4 -48 -10 -48 -14 0 -3
-15 -7 -33 -7 -17 -1 -95 -11 -172 -22 -235 -36 -400 -45 -690 -39 -188 3
-319 11 -430 26 -565 73 -1103 255 -1579 535 -71 42 -133 73 -138 70 -4 -3 -7
-1 -6 5 2 5 -43 41 -99 78 -309 207 -654 521 -876 798 -63 79 -106 135 -126
163 -12 18 -27 29 -33 26 -7 -4 -8 -2 -4 4 4 6 -12 38 -36 69 -24 32 -48 67
-54 78 -6 11 -38 63 -71 115 -335 528 -547 1160 -609 1813 -20 213 -15 660 10
867 35 286 99 573 186 830 45 135 157 419 182 465 6 11 29 56 51 100 22 44 71
134 110 200 203 345 391 590 659 860 228 230 432 394 715 576 56 36 99 70 95
74 -4 5 -2 5 5 2 6 -4 51 16 100 44 275 159 672 319 1003 403 227 57 400 86
735 120 98 10 676 -3 790 -18z"/>
<path d="M6949 7238 c-37 -35 -133 -126 -215 -203 -228 -215 -605 -575 -744
-711 -69 -67 -138 -135 -155 -150 -16 -14 -75 -70 -130 -123 -56 -53 -146
-138 -200 -190 -55 -52 -145 -138 -200 -191 l-100 -95 -87 0 c-53 1 -86 -3
-85 -9 1 -5 -7 -11 -18 -13 -16 -3 -17 -2 -5 6 9 7 10 11 3 11 -6 0 -18 -7
-27 -15 -8 -8 -21 -15 -30 -15 -23 0 -68 -22 -96 -47 -14 -13 -28 -23 -32 -23
-5 0 -8 -5 -8 -11 0 -8 5 -8 15 1 10 9 15 9 15 1 0 -10 -5 -12 -37 -15 -14 -1
-72 -76 -73 -93 0 -7 -4 -13 -8 -13 -14 0 -33 -48 -22 -55 6 -4 10 -12 10 -18
0 -7 -4 -6 -10 3 -8 13 -10 12 -10 -2 0 -10 -5 -18 -11 -18 -6 0 -9 -7 -5 -15
3 -8 1 -15 -5 -15 -6 0 -8 -4 -4 -9 3 -6 -4 -8 -17 -5 -39 7 -280 -8 -266 -18
11 -6 11 -10 -1 -17 -9 -6 -9 -10 -2 -12 6 -2 -52 -3 -130 -2 -78 1 -144 5
-148 9 -3 4 10 4 30 1 20 -3 42 -1 50 5 13 8 -66 5 -201 -8 -61 -7 -122 -11
-230 -18 -58 -4 -112 -8 -120 -11 -8 -2 -91 -7 -185 -10 -95 -4 -173 -12 -176
-17 -4 -6 -9 -5 -11 3 -4 11 -10 11 -24 3 -11 -6 -50 -10 -89 -9 -43 1 -62 -1
-50 -6 12 -5 -13 -7 -65 -7 -47 1 -112 -2 -145 -5 -33 -4 -127 -9 -209 -12
-81 -4 -159 -10 -173 -16 -13 -5 -50 -7 -81 -4 -45 3 -50 2 -27 -5 22 -7 12
-8 -40 -4 -38 2 -124 0 -190 -6 -66 -6 -143 -13 -172 -15 -28 -2 -61 -8 -72
-15 -12 -6 -25 -9 -30 -6 -10 7 -59 7 -151 2 -41 -2 -129 -7 -195 -10 -66 -3
-133 -9 -150 -13 -16 -3 -64 -7 -105 -9 -109 -4 -115 -6 -113 -40 1 -16 3 -47
4 -69 0 -22 3 -64 6 -93 l5 -53 81 3 c45 2 80 7 79 12 -5 13 19 25 53 27 23 2
20 4 -15 9 -44 7 -44 7 -10 10 l35 3 -35 7 c-34 7 -34 7 12 9 38 1 46 -2 42
-14 -4 -10 0 -15 11 -15 9 0 14 4 11 9 -8 12 40 17 94 10 l45 -6 -40 -3 c-22
-1 -47 -2 -55 -1 -12 2 -13 0 -1 -8 7 -5 41 -6 75 -4 33 3 59 3 56 0 -4 -4
-61 -8 -128 -10 -68 -3 -126 -7 -129 -11 -6 -6 48 -11 77 -7 8 1 52 4 98 6 45
2 87 7 92 10 17 10 11 25 -10 25 -11 0 -20 3 -20 8 0 11 217 6 299 -8 53 -8
90 -9 135 -2 33 6 86 10 116 10 117 -1 436 25 405 34 -16 4 -46 6 -65 3 -27
-4 -30 -3 -15 4 11 5 31 11 45 12 16 1 8 5 -20 9 -44 7 -44 7 -10 10 l35 3
-35 7 -35 7 43 2 c31 1 42 -3 42 -14 0 -11 11 -15 38 -16 20 0 46 -5 57 -10
14 -6 1 -7 -40 -4 -50 4 -54 3 -25 -5 19 -5 73 -6 120 -3 47 3 113 5 147 4 34
-1 64 3 68 9 3 5 25 10 48 10 23 0 49 5 57 11 11 7 3 9 -30 5 -39 -5 -41 -4
-15 4 17 6 44 7 60 4 l30 -7 -25 -9 c-15 -6 -20 -12 -12 -15 7 -3 19 1 27 7 9
8 28 10 47 6 36 -7 194 4 180 13 -5 3 67 7 162 9 101 1 172 6 174 12 2 6 14
10 27 10 13 0 27 5 30 10 3 6 32 9 63 8 l57 -1 -55 -7 -55 -7 52 -1 c28 -1 63
2 76 7 14 6 54 12 89 15 l63 5 -60 -14 -60 -14 55 6 c60 7 85 9 175 13 l60 2
-68 12 c-79 15 -97 26 -40 26 23 0 43 -5 45 -11 3 -8 23 -8 74 0 46 7 79 7 99
1 l30 -10 -32 5 c-41 6 -93 -4 -93 -17 0 -6 10 -7 23 -3 12 3 60 9 106 11 46
3 93 10 104 15 14 8 18 8 13 0 -5 -7 1 -11 14 -11 12 0 18 5 15 10 -3 6 -2 10
4 10 5 0 11 -6 14 -12 3 -10 7 -10 20 1 12 9 17 10 17 2 0 -8 5 -9 19 -1 26
13 52 14 31 0 -8 -5 -12 -10 -8 -10 4 0 -18 -23 -48 -51 -30 -29 -54 -57 -54
-63 0 -6 19 -31 41 -56 80 -88 105 -116 184 -205 43 -49 91 -102 105 -118 l25
-27 123 117 124 118 84 -1 c87 -2 160 14 236 51 36 18 36 18 20 44 l-16 26 22
-19 c12 -11 25 -16 29 -12 12 12 -59 61 -90 62 -21 1 -31 -4 -37 -20 -7 -17
-9 -18 -9 -3 -1 9 -7 17 -13 17 -7 1 3 8 22 16 19 8 42 22 52 31 10 9 21 13
24 10 4 -4 -1 -9 -10 -13 -14 -5 -13 -9 8 -29 31 -29 93 -28 88 1 -3 15 -1 16
9 7 18 -18 -7 -45 -35 -37 -20 6 -20 6 -3 -12 18 -18 19 -18 53 21 19 21 32
45 29 53 -3 9 0 12 9 9 13 -5 59 62 54 80 -1 4 2 17 8 28 8 15 7 27 -2 45
l-14 25 -1 -25 c-1 -17 -3 -19 -6 -7 -2 9 -9 17 -14 17 -13 0 -11 -27 2 -35 6
-4 8 -14 5 -22 -3 -8 -1 -11 4 -8 6 3 7 -1 4 -10 -7 -18 -13 -15 -19 11 -2 11
-7 29 -10 40 -11 35 39 56 62 26 7 -9 13 -12 13 -6 0 7 6 12 13 11 44 -1 140
5 130 10 -16 6 -17 39 -2 49 7 4 8 20 4 43 -4 20 -8 61 -9 93 -1 65 -11 85
-14 30 -2 -20 -7 -55 -12 -77 -5 -23 -7 -50 -4 -60 2 -11 0 -33 -5 -50 -10
-32 -9 19 3 155 3 44 3 55 -3 35 l-9 -30 -1 27 c-1 19 10 39 37 65 48 50 795
772 912 883 42 40 507 488 652 630 54 52 98 97 98 102 0 9 -350 368 -359 368
-4 0 -36 -28 -72 -62z m-1801 -1675 c-10 -2 -28 -2 -40 0 -13 2 -5 4 17 4 22
1 32 -1 23 -4z m97 -3 c4 -6 10 -8 15 -5 5 3 25 -3 44 -13 l35 -19 -79 1 c-43
0 -73 4 -67 8 6 4 -16 7 -50 6 -35 0 -60 -4 -58 -8 5 -8 -19 -20 -38 -19 -7 0
-3 5 8 10 14 7 4 8 -35 5 -38 -3 -47 -2 -30 4 14 4 41 9 60 10 32 2 33 3 10
10 -14 4 9 5 51 2 51 -3 78 -1 83 7 9 14 43 15 51 1z m-61 -49 c18 -7 16 -9
-14 -19 -40 -15 -50 -15 -50 -2 0 6 12 11 28 11 24 2 23 2 -8 9 -34 7 -34 7
-5 8 17 0 39 -3 49 -7z m-84 -21 c-8 -5 -26 -10 -40 -10 -20 0 -22 2 -10 10 8
5 26 10 40 10 20 0 22 -2 10 -10z m298 -8 c2 -7 -5 -12 -17 -12 -14 0 -19 5
-14 15 6 17 25 15 31 -3z m-523 -2 c-3 -5 -12 -10 -18 -10 -7 0 -6 4 3 10 19
12 23 12 15 0z m325 -10 c0 -5 -24 -10 -53 -10 -29 0 -58 -5 -64 -11 -8 -8
-17 -8 -29 -1 -14 8 -6 11 41 17 33 3 67 8 75 9 28 6 30 6 30 -4z m248 -20
c12 -19 11 -20 -8 -8 -20 13 -27 28 -12 28 4 0 13 -9 20 -20z m-526 -34 c6 4
5 10 -3 15 -9 5 -5 7 12 5 13 -1 30 -6 37 -10 7 -4 19 -2 27 4 8 7 19 10 25 8
7 -2 -5 -11 -25 -21 -20 -10 -34 -13 -30 -7 14 23 -8 7 -56 -42 -28 -29 -60
-71 -71 -93 -17 -34 -19 -36 -15 -12 3 16 1 43 -3 61 -6 27 -4 32 12 32 20 0
24 -11 8 -21 -5 -3 -10 -10 -10 -16 0 -18 16 -9 32 19 9 15 28 34 42 42 14 7
26 17 26 22 0 5 -9 4 -20 -2 -12 -6 -20 -7 -20 -1 0 5 -3 18 -7 28 -7 17 -6
17 11 0 10 -9 22 -14 28 -11z m416 5 c15 -8 21 -18 18 -28 -4 -9 -1 -23 6 -32
7 -9 -5 -1 -27 17 -22 18 -45 36 -50 41 -6 4 -17 6 -25 3 -13 -3 -13 -2 -1 6
17 12 49 9 79 -7z m147 -11 c3 -5 1 -10 -4 -10 -6 0 -11 5 -11 10 0 6 2 10 4
10 3 0 8 -4 11 -10z m-689 -24 c0 -13 -4 -22 -8 -19 -5 2 -8 -4 -8 -15 0 -26
-37 -59 -51 -45 -8 8 -5 13 10 18 12 3 21 14 21 23 0 16 26 62 35 62 1 0 2
-11 1 -24z m659 4 c3 -5 1 -10 -4 -10 -6 0 -11 5 -11 10 0 6 2 10 4 10 3 0 8
-4 11 -10z m-55 -34 c0 -3 -4 -8 -10 -11 -5 -3 -10 -1 -10 4 0 6 5 11 10 11 6
0 10 -2 10 -4z m20 -15 c-15 -29 -12 -38 5 -15 14 19 14 19 15 -3 0 -21 -13
-25 -37 -10 -10 6 -10 12 0 27 15 26 31 26 17 1z m124 -16 c3 -8 1 -15 -3 -15
-5 0 -11 7 -15 15 -3 8 -1 15 3 15 5 0 11 -7 15 -15z m-737 -27 c0 -18 -2 -28
-4 -22 -2 7 -14 9 -26 6 -22 -5 -22 -5 2 22 14 14 25 26 26 26 1 0 2 -15 2
-32z m666 -30 c4 -10 8 -9 16 2 10 13 12 13 21 0 10 -15 5 -55 -11 -95 -6 -15
-7 -11 -7 18 1 20 5 37 10 37 4 0 8 7 8 15 0 21 -20 19 -20 -2 -1 -15 -3 -15
-19 5 -11 12 -22 22 -26 22 -3 0 -4 -10 0 -22 5 -20 4 -21 -5 -5 -6 9 -8 22
-5 27 9 14 32 12 38 -2z m-757 -38 c0 -11 -7 -22 -14 -25 -10 -4 -12 0 -8 11
3 8 6 20 6 25 0 5 4 9 8 9 4 0 8 -9 8 -20z m91 -2 c-3 -8 -6 -5 -6 6 -1 11 2
17 5 13 3 -3 4 -12 1 -19z m672 -36 c0 -24 -1 -25 -9 -7 -12 28 -12 47 0 40 6
-3 10 -18 9 -33z m-1419 -42 c-21 -7 -22 -8 -5 -9 11 -1 27 -6 35 -12 12 -8
11 -9 -5 -5 -49 12 -89 17 -79 9 7 -4 -20 -9 -60 -9 -64 -1 -67 -1 -28 7 23 5
61 13 85 18 56 11 92 12 57 1z m1657 -52 c-2 -13 -4 -3 -4 22 0 25 2 35 4 23
2 -13 2 -33 0 -45z m-1800 46 c-3 -3 -12 -4 -19 -1 -8 3 -5 6 6 6 11 1 17 -2
13 -5z m408 -2 c36 -5 38 -6 15 -13 -35 -10 -60 -10 -35 1 19 8 19 9 -2 9 -12
1 -33 -3 -48 -9 -18 -7 -24 -7 -20 1 5 7 -12 9 -52 6 -39 -3 -47 -2 -23 3 44
9 113 10 165 2z m-568 -8 c-3 -3 -12 -4 -19 -1 -8 3 -5 6 6 6 11 1 17 -2 13
-5z m98 -4 c-11 -5 -33 -8 -50 -8 -29 0 -29 0 -5 8 14 4 36 8 50 8 23 1 23 0
5 -8z m1628 1 c4 8 3 -10 0 -38 -4 -36 -2 -53 6 -53 6 0 11 17 11 39 0 22 3
42 8 44 11 8 8 -76 -3 -89 -6 -8 -14 -9 -22 -2 -8 6 -12 3 -15 -13 -2 -12 -9
-24 -16 -27 -10 -3 -9 4 3 29 12 22 16 46 12 77 -3 25 -1 39 3 32 6 -10 9 -9
13 1z m-1770 -8 c-7 -2 -19 -2 -25 0 -7 3 -2 5 12 5 14 0 19 -2 13 -5z m684 1
c-3 -3 -12 -4 -19 -1 -8 3 -5 6 6 6 11 1 17 -2 13 -5z m-1200 -30 c-3 -3 -12
-4 -19 -1 -8 3 -5 6 6 6 11 1 17 -2 13 -5z m63 -3 c0 -14 -27 -21 -88 -23
l-57 -1 45 -7 c42 -7 43 -7 10 -9 -19 -1 -46 -4 -60 -6 -21 -5 -22 -4 -5 3 16
8 11 11 -33 21 -29 6 -72 9 -95 6 l-42 -5 40 10 c25 7 56 7 85 2 46 -10 163
-2 176 11 10 10 24 9 24 -2z m-341 -27 c2 -2 -7 -4 -20 -5 -22 0 -23 -1 -4 -9
13 -5 14 -9 5 -9 -8 0 -24 4 -35 9 l-20 9 20 0 c17 1 18 3 5 11 -11 8 -7 9 15
4 17 -4 32 -8 34 -10z m-176 -1 c-7 -2 -21 -2 -30 0 -10 3 -4 5 12 5 17 0 24
-2 18 -5z m77 -1 c-21 -4 -22 -6 -7 -11 10 -4 -8 -7 -40 -7 l-58 -1 45 13 c25
6 54 12 65 12 14 -1 12 -2 -5 -6z m240 -1 c16 -5 -4 -8 -55 -8 -63 0 -71 1
-40 7 52 9 65 9 95 1z m2647 -13 c-3 -8 -6 -5 -6 6 -1 11 2 17 5 13 3 -3 4
-12 1 -19z m-3157 2 c-8 -5 -22 -9 -30 -9 -10 0 -8 3 5 9 27 12 43 12 25 0z
m693 -7 c-7 -2 -19 -2 -25 0 -7 3 -2 5 12 5 14 0 19 -2 13 -5z m-1191 -36
c-19 -6 -40 -6 -52 -1 -15 7 -7 9 32 10 50 0 51 0 20 -9z m2760 -24 c-3 -16
-7 -22 -10 -15 -4 13 4 42 11 42 2 0 2 -12 -1 -27z m692 -5 c6 -4 7 -10 3 -15
-5 -4 -12 -1 -17 7 -7 10 -10 11 -10 3 0 -7 -4 -13 -9 -13 -5 0 -4 11 2 25 7
13 14 19 16 12 2 -7 9 -15 15 -19z m-3804 12 c-18 -6 -7 -8 43 -9 37 -1 67 -4
67 -9 0 -4 -35 -4 -77 -1 -43 4 -98 5 -123 3 -41 -3 -40 -2 15 10 68 16 117
19 75 6z m243 -1 c-22 -4 -63 -4 -90 0 -41 6 -35 8 42 7 70 0 81 -1 48 -7z
m-390 -6 c-7 -2 -19 -2 -25 0 -7 3 -2 5 12 5 14 0 19 -2 13 -5z m497 -2 c-20
-4 -41 -10 -48 -15 -8 -5 -10 -2 -6 8 4 11 19 16 48 15 l41 -1 -35 -7z m2805
-79 c-3 -8 0 -12 7 -9 7 2 27 -8 43 -24 17 -16 48 -38 70 -49 32 -16 35 -19
15 -17 -14 1 -34 10 -45 20 -26 24 -55 40 -55 30 0 -5 9 -14 20 -21 20 -12 19
-32 -1 -32 -6 0 -7 5 -3 12 5 7 2 9 -7 6 -12 -5 -15 2 -15 30 1 36 0 37 -39
37 -38 0 -39 1 -41 35 -1 19 1 29 3 23 10 -27 23 -12 18 20 l-5 32 20 -40 c11
-22 18 -46 15 -53z m-3395 68 c-14 -4 -43 -8 -65 -8 l-40 1 35 7 c19 4 49 8
65 8 29 0 29 0 5 -8z m469 -6 c10 -9 -66 -3 -79 6 -10 7 -1 8 30 4 25 -4 47
-8 49 -10z m-622 0 c-3 -3 -12 -4 -19 -1 -8 3 -5 6 6 6 11 1 17 -2 13 -5z
m246 -1 c-7 -2 -19 -2 -25 0 -7 3 -2 5 12 5 14 0 19 -2 13 -5z m524 1 c-3 -3
-12 -4 -19 -1 -8 3 -5 6 6 6 11 1 17 -2 13 -5z m3365 -6 c-5 -7 -9 -27 -7 -44
1 -27 -1 -30 -26 -30 -20 0 -25 4 -21 15 4 11 7 11 10 3 3 -10 7 -10 18 -1 16
13 19 33 4 24 -16 -10 -12 7 7 27 18 20 31 25 15 6z m-1734 -5 c-10 -2 -26 -2
-35 0 -10 3 -2 5 17 5 19 0 27 -2 18 -5z m259 1 c-13 -13 -141 -31 -166 -24
-20 7 -13 9 34 10 49 2 55 4 30 10 -23 6 -14 8 39 9 38 0 67 -2 63 -5z m386
-1 c-7 -2 -19 -2 -25 0 -7 3 -2 5 12 5 14 0 19 -2 13 -5z m234 1 c-3 -3 -12
-4 -19 -1 -8 3 -5 6 6 6 11 1 17 -2 13 -5z m-967 -29 c0 -14 -4 -25 -10 -25
-5 0 -10 11 -10 25 0 14 5 25 10 25 6 0 10 -11 10 -25z m140 15 c0 -5 -18 -10
-39 -10 -22 0 -41 -4 -43 -10 -2 -5 -9 -6 -17 -1 -10 7 -2 12 30 19 60 13 69
14 69 2z m1762 -62 c-6 -6 -7 0 -4 19 5 21 7 23 10 9 2 -10 0 -22 -6 -28z
m-2687 -9 c-22 -3 -34 -7 -26 -8 23 -2 6 -12 -38 -22 -24 -5 -49 -5 -63 0 -19
8 -15 10 27 12 l50 1 -40 9 c-22 4 -56 8 -75 7 -32 0 -33 -1 -10 -8 32 -10 13
-12 -31 -3 -32 6 -33 7 -9 13 14 4 77 6 140 6 68 -1 99 -3 75 -7z m95 1 c20
-6 21 -8 5 -8 -11 0 -29 3 -40 8 -25 11 1 11 35 0z m183 3 c-7 -2 -19 -2 -25
0 -7 3 -2 5 12 5 14 0 19 -2 13 -5z m102 -3 c-27 -12 -43 -12 -25 0 8 5 22 9
30 9 10 0 8 -3 -5 -9z m1581 -8 c1 -7 0 -8 -3 -2 -7 14 -33 13 -33 -2 0 -6 -3
-9 -6 -5 -3 3 -3 11 1 17 9 14 38 9 41 -8z m671 -7 c8 -9 13 -19 10 -22 -6 -5
-37 21 -37 31 0 10 11 6 27 -9z m-2579 -12 c-10 -2 -26 -2 -35 0 -10 3 -2 5
17 5 19 0 27 -2 18 -5z m-971 -49 c-3 -3 -12 -4 -19 -1 -8 3 -5 6 6 6 11 1 17
-2 13 -5z m162 2 c-2 -2 -33 -6 -69 -9 -41 -3 -54 -2 -35 3 31 8 112 13 104 6z
m3161 -10 c0 -7 -9 -16 -20 -19 -11 -3 -20 -11 -20 -17 0 -7 7 -9 15 -6 8 3
22 9 30 12 9 4 15 0 15 -9 0 -8 6 -18 13 -20 6 -3 -6 -3 -28 0 -22 3 -44 10
-49 14 -17 15 -65 10 -75 -8 -5 -10 -13 -15 -16 -11 -14 14 24 38 62 39 l38 2
-35 7 -35 7 42 2 c23 0 45 6 48 11 9 14 15 12 15 -4z m-400 -16 c0 -5 -2 -10
-4 -10 -3 0 -8 5 -11 10 -3 6 -1 10 4 10 6 0 11 -4 11 -10z m263 3 c-7 -2 -21
-2 -30 0 -10 3 -4 5 12 5 17 0 24 -2 18 -5z m-233 -17 c0 -3 -4 -8 -10 -11 -5
-3 -10 -1 -10 4 0 6 5 11 10 11 6 0 10 -2 10 -4z m235 -5 c-6 -5 -21 -11 -35
-14 -14 -2 -19 -2 -12 0 7 3 10 9 7 14 -4 5 6 9 21 9 18 0 24 -4 19 -9z m100
-41 c17 -11 39 -20 50 -21 17 -1 16 -2 -5 -9 -34 -11 -60 -11 -35 0 17 7 17 9
3 9 -10 1 -18 5 -18 10 0 4 -15 13 -32 19 -22 7 -26 10 -13 11 11 0 34 -8 50
-19z m-242 -7 c-6 -16 -5 -16 -39 2 l-29 15 36 -2 c24 -2 35 -7 32 -15z m83 4
c4 -4 -7 -7 -24 -7 -18 0 -32 -5 -32 -11 0 -6 9 -9 20 -6 11 3 20 1 20 -4 0
-10 -21 -12 -45 -3 -14 6 -14 8 0 24 15 16 48 20 61 7z m286 1 c-9 -4 -30 -7
-47 -7 -16 0 -38 3 -47 7 -10 4 12 7 47 7 35 0 57 -3 47 -7z m-179 -15 c-18
-2 -48 -2 -65 0 -18 2 -4 4 32 4 36 0 50 -2 33 -4z m1 -26 c-14 -5 -45 -5 -72
0 -46 10 -46 10 25 9 54 -1 66 -3 47 -9z"/>
<path d="M5200 5550 c0 -5 9 -10 20 -10 11 0 20 5 20 10 0 6 -9 10 -20 10 -11
0 -20 -4 -20 -10z"/>
<path d="M5265 5540 c-3 -5 -1 -10 4 -10 6 0 11 5 11 10 0 6 -2 10 -4 10 -3 0
-8 -4 -11 -10z"/>
<path d="M5313 5410 c14 -11 29 -20 34 -20 11 1 -37 40 -49 40 -6 0 1 -9 15
-20z"/>
<path d="M4821 4913 c-7 -8 -11 -16 -8 -19 6 -7 37 7 37 16 0 16 -15 18 -29 3z"/>
<path d="M4267 5173 c18 -2 50 -2 70 0 21 2 7 4 -32 4 -38 0 -55 -2 -38 -4z"/>
<path d="M5315 4820 c-3 -5 -1 -10 4 -10 6 0 11 5 11 10 0 6 -2 10 -4 10 -3 0
-8 -4 -11 -10z"/>
<path d="M1738 4783 c-63 -4 -76 -17 -27 -27 43 -8 71 -5 34 4 -17 4 15 6 75
5 105 -3 105 -3 55 11 -27 7 -57 13 -65 12 -8 -1 -41 -3 -72 -5z m95 -10 c-7
-2 -19 -2 -25 0 -7 3 -2 5 12 5 14 0 19 -2 13 -5z"/>
</g>
</svg>
